<mxfile host="app.diagrams.net" agent="Mozilla/5.0 (Windows NT 10.0; Win64; x64) AppleWebKit/537.36 (KHTML, like Gecko) Chrome/137.0.0.0 Safari/537.36 Edg/137.0.0.0" version="27.1.6">
  <diagram name="Page-1" id="lKizJ39WhizE8Euct69D">
    <mxGraphModel dx="1098" dy="624" grid="1" gridSize="10" guides="1" tooltips="1" connect="1" arrows="1" fold="1" page="1" pageScale="1" pageWidth="850" pageHeight="1100" math="0" shadow="0">
      <root>
        <mxCell id="0" />
        <mxCell id="1" parent="0" />
        <mxCell id="m22Obmv3goD1-djp9j3c-3" value="" style="group" parent="1" vertex="1" connectable="0">
          <mxGeometry x="355" y="483" width="60" height="76" as="geometry" />
        </mxCell>
        <mxCell id="m22Obmv3goD1-djp9j3c-1" value="" style="html=1;verticalLabelPosition=bottom;align=center;labelBackgroundColor=#ffffff;verticalAlign=top;strokeWidth=2;strokeColor=#0080F0;shadow=1;dashed=0;shape=mxgraph.ios7.icons.data;" parent="m22Obmv3goD1-djp9j3c-3" vertex="1">
          <mxGeometry x="12.5" width="35" height="40" as="geometry" />
        </mxCell>
        <mxCell id="m22Obmv3goD1-djp9j3c-2" value="SQLite DB" style="text;html=1;align=center;verticalAlign=middle;whiteSpace=wrap;rounded=0;fontStyle=1" parent="m22Obmv3goD1-djp9j3c-3" vertex="1">
          <mxGeometry y="46" width="60" height="30" as="geometry" />
        </mxCell>
        <mxCell id="m22Obmv3goD1-djp9j3c-6" value="" style="group" parent="1" vertex="1" connectable="0">
          <mxGeometry x="623" y="150" width="90" height="80" as="geometry" />
        </mxCell>
        <mxCell id="m22Obmv3goD1-djp9j3c-4" value="" style="sketch=0;html=1;strokeColor=none;shadow=0;fillColor=#3B8DF1;verticalAlign=top;labelPosition=center;verticalLabelPosition=bottom;shape=mxgraph.gcp2.process" parent="m22Obmv3goD1-djp9j3c-6" vertex="1">
          <mxGeometry x="27.5" width="35" height="40" as="geometry" />
        </mxCell>
        <mxCell id="m22Obmv3goD1-djp9j3c-5" value="&lt;b&gt;Background&lt;/b&gt;&lt;div&gt;&lt;b&gt;Process&lt;/b&gt;&lt;/div&gt;" style="text;html=1;align=center;verticalAlign=middle;resizable=0;points=[];autosize=1;strokeColor=none;fillColor=none;" parent="m22Obmv3goD1-djp9j3c-6" vertex="1">
          <mxGeometry y="40" width="90" height="40" as="geometry" />
        </mxCell>
        <mxCell id="zxf6L_KZFqAJSKNjvlDu-6" value="" style="group" vertex="1" connectable="0" parent="1">
          <mxGeometry x="784" y="157" width="50" height="60" as="geometry" />
        </mxCell>
        <mxCell id="m22Obmv3goD1-djp9j3c-7" value="" style="points=[];aspect=fixed;html=1;align=center;shadow=0;dashed=0;fillColor=#696969;strokeColor=none;shape=mxgraph.alibaba_cloud.sms_short_message_service;" parent="zxf6L_KZFqAJSKNjvlDu-6" vertex="1">
          <mxGeometry x="8.620000000000005" width="32.76" height="30" as="geometry" />
        </mxCell>
        <mxCell id="m22Obmv3goD1-djp9j3c-8" value="&lt;b&gt;SMS&lt;/b&gt;" style="text;html=1;align=center;verticalAlign=middle;resizable=0;points=[];autosize=1;strokeColor=none;fillColor=none;" parent="zxf6L_KZFqAJSKNjvlDu-6" vertex="1">
          <mxGeometry y="30" width="50" height="30" as="geometry" />
        </mxCell>
        <mxCell id="zxf6L_KZFqAJSKNjvlDu-9" value="" style="group" vertex="1" connectable="0" parent="1">
          <mxGeometry x="31" y="73" width="50" height="70" as="geometry" />
        </mxCell>
        <mxCell id="zxf6L_KZFqAJSKNjvlDu-22" style="edgeStyle=orthogonalEdgeStyle;rounded=0;orthogonalLoop=1;jettySize=auto;html=1;" edge="1" parent="zxf6L_KZFqAJSKNjvlDu-9" source="zxf6L_KZFqAJSKNjvlDu-7">
          <mxGeometry relative="1" as="geometry">
            <mxPoint x="150" y="60" as="targetPoint" />
          </mxGeometry>
        </mxCell>
        <mxCell id="zxf6L_KZFqAJSKNjvlDu-7" value="" style="sketch=0;pointerEvents=1;shadow=0;dashed=0;html=1;strokeColor=none;fillColor=#505050;labelPosition=center;verticalLabelPosition=bottom;verticalAlign=top;outlineConnect=0;align=center;shape=mxgraph.office.users.user;" vertex="1" parent="zxf6L_KZFqAJSKNjvlDu-9">
          <mxGeometry x="7.5" y="40" width="35" height="40" as="geometry" />
        </mxCell>
        <mxCell id="zxf6L_KZFqAJSKNjvlDu-8" value="&lt;b&gt;User&lt;/b&gt;" style="text;html=1;align=center;verticalAlign=middle;resizable=0;points=[];autosize=1;strokeColor=none;fillColor=none;" vertex="1" parent="zxf6L_KZFqAJSKNjvlDu-9">
          <mxGeometry y="80" width="50" height="30" as="geometry" />
        </mxCell>
        <mxCell id="zxf6L_KZFqAJSKNjvlDu-12" value="" style="group" vertex="1" connectable="0" parent="1">
          <mxGeometry x="638" y="307" width="60" height="80" as="geometry" />
        </mxCell>
        <mxCell id="zxf6L_KZFqAJSKNjvlDu-10" value="" style="sketch=0;outlineConnect=0;fontColor=#232F3E;gradientColor=none;fillColor=#01A88D;strokeColor=none;dashed=0;verticalLabelPosition=bottom;verticalAlign=top;align=center;html=1;fontSize=12;fontStyle=0;pointerEvents=1;shape=mxgraph.aws4.sagemaker_model;" vertex="1" parent="zxf6L_KZFqAJSKNjvlDu-12">
          <mxGeometry x="12.5" width="35" height="40" as="geometry" />
        </mxCell>
        <mxCell id="zxf6L_KZFqAJSKNjvlDu-11" value="&lt;b&gt;Gen AI&lt;/b&gt;&lt;div&gt;&lt;b&gt;Model&lt;/b&gt;&lt;/div&gt;" style="text;html=1;align=center;verticalAlign=middle;resizable=0;points=[];autosize=1;strokeColor=none;fillColor=none;" vertex="1" parent="zxf6L_KZFqAJSKNjvlDu-12">
          <mxGeometry y="40" width="60" height="40" as="geometry" />
        </mxCell>
        <mxCell id="zxf6L_KZFqAJSKNjvlDu-13" value="" style="group" vertex="1" connectable="0" parent="1">
          <mxGeometry x="240" y="340" width="90" height="80" as="geometry" />
        </mxCell>
        <mxCell id="zxf6L_KZFqAJSKNjvlDu-14" value="" style="sketch=0;html=1;strokeColor=none;shadow=0;fillColor=#3B8DF1;verticalAlign=top;labelPosition=center;verticalLabelPosition=bottom;shape=mxgraph.gcp2.process" vertex="1" parent="zxf6L_KZFqAJSKNjvlDu-13">
          <mxGeometry x="27.5" width="35" height="40" as="geometry" />
        </mxCell>
        <mxCell id="zxf6L_KZFqAJSKNjvlDu-15" value="&lt;b&gt;Card&lt;/b&gt;&lt;div&gt;&lt;b&gt;Service&lt;/b&gt;&lt;/div&gt;" style="text;html=1;align=center;verticalAlign=middle;resizable=0;points=[];autosize=1;strokeColor=none;fillColor=none;" vertex="1" parent="zxf6L_KZFqAJSKNjvlDu-13">
          <mxGeometry x="10" y="40" width="70" height="40" as="geometry" />
        </mxCell>
        <mxCell id="zxf6L_KZFqAJSKNjvlDu-16" value="" style="group" vertex="1" connectable="0" parent="1">
          <mxGeometry x="340" y="340" width="90" height="80" as="geometry" />
        </mxCell>
        <mxCell id="zxf6L_KZFqAJSKNjvlDu-17" value="" style="sketch=0;html=1;strokeColor=none;shadow=0;fillColor=#3B8DF1;verticalAlign=top;labelPosition=center;verticalLabelPosition=bottom;shape=mxgraph.gcp2.process" vertex="1" parent="zxf6L_KZFqAJSKNjvlDu-16">
          <mxGeometry x="27.5" width="35" height="40" as="geometry" />
        </mxCell>
        <mxCell id="zxf6L_KZFqAJSKNjvlDu-18" value="&lt;b&gt;Cash&lt;/b&gt;&lt;div&gt;&lt;b&gt;Service&lt;/b&gt;&lt;/div&gt;" style="text;html=1;align=center;verticalAlign=middle;resizable=0;points=[];autosize=1;strokeColor=none;fillColor=none;" vertex="1" parent="zxf6L_KZFqAJSKNjvlDu-16">
          <mxGeometry x="10" y="40" width="70" height="40" as="geometry" />
        </mxCell>
        <mxCell id="zxf6L_KZFqAJSKNjvlDu-19" value="" style="group" vertex="1" connectable="0" parent="1">
          <mxGeometry x="440" y="340" width="90" height="80" as="geometry" />
        </mxCell>
        <mxCell id="zxf6L_KZFqAJSKNjvlDu-20" value="" style="sketch=0;html=1;strokeColor=none;shadow=0;fillColor=#3B8DF1;verticalAlign=top;labelPosition=center;verticalLabelPosition=bottom;shape=mxgraph.gcp2.process" vertex="1" parent="zxf6L_KZFqAJSKNjvlDu-19">
          <mxGeometry x="27.5" width="35" height="40" as="geometry" />
        </mxCell>
        <mxCell id="zxf6L_KZFqAJSKNjvlDu-21" value="&lt;b&gt;Analytic&lt;/b&gt;&lt;div&gt;&lt;b&gt;Service&lt;/b&gt;&lt;/div&gt;" style="text;html=1;align=center;verticalAlign=middle;resizable=0;points=[];autosize=1;strokeColor=none;fillColor=none;" vertex="1" parent="zxf6L_KZFqAJSKNjvlDu-19">
          <mxGeometry x="10" y="40" width="70" height="40" as="geometry" />
        </mxCell>
        <mxCell id="zxf6L_KZFqAJSKNjvlDu-24" style="edgeStyle=orthogonalEdgeStyle;rounded=0;orthogonalLoop=1;jettySize=auto;html=1;startArrow=classic;startFill=1;endArrow=none;" edge="1" parent="1">
          <mxGeometry relative="1" as="geometry">
            <mxPoint x="181" y="147.83" as="targetPoint" />
            <mxPoint x="74" y="147.83" as="sourcePoint" />
          </mxGeometry>
        </mxCell>
        <mxCell id="zxf6L_KZFqAJSKNjvlDu-27" style="edgeStyle=orthogonalEdgeStyle;rounded=0;orthogonalLoop=1;jettySize=auto;html=1;" edge="1" parent="1">
          <mxGeometry relative="1" as="geometry">
            <mxPoint x="677" y="230" as="sourcePoint" />
            <mxPoint x="677" y="309.3697507681803" as="targetPoint" />
          </mxGeometry>
        </mxCell>
        <mxCell id="zxf6L_KZFqAJSKNjvlDu-28" style="edgeStyle=orthogonalEdgeStyle;rounded=0;orthogonalLoop=1;jettySize=auto;html=1;startArrow=classic;startFill=1;endArrow=none;" edge="1" parent="1">
          <mxGeometry relative="1" as="geometry">
            <mxPoint x="660" y="230" as="sourcePoint" />
            <mxPoint x="660" y="309.3697507681803" as="targetPoint" />
          </mxGeometry>
        </mxCell>
        <mxCell id="zxf6L_KZFqAJSKNjvlDu-36" value="" style="edgeStyle=orthogonalEdgeStyle;rounded=0;orthogonalLoop=1;jettySize=auto;html=1;" edge="1" parent="1" source="zxf6L_KZFqAJSKNjvlDu-29" target="zxf6L_KZFqAJSKNjvlDu-35">
          <mxGeometry relative="1" as="geometry" />
        </mxCell>
        <mxCell id="zxf6L_KZFqAJSKNjvlDu-29" value="&lt;div style=&quot;line-height: 80%;&quot;&gt;&lt;font style=&quot;font-size: 8px; line-height: 80%;&quot;&gt;&lt;b&gt;is bank&lt;/b&gt;&lt;/font&gt;&lt;div&gt;&lt;span style=&quot;background-color: transparent; color: light-dark(rgb(0, 0, 0), rgb(255, 255, 255));&quot;&gt;&lt;font style=&quot;font-size: 8px; line-height: 80%;&quot;&gt;&lt;b&gt;sms?&lt;/b&gt;&lt;/font&gt;&lt;/span&gt;&lt;/div&gt;&lt;/div&gt;" style="rhombus;whiteSpace=wrap;html=1;fillColor=#fff2cc;strokeColor=#d6b656;" vertex="1" parent="1">
          <mxGeometry x="500" y="148" width="50" height="44" as="geometry" />
        </mxCell>
        <mxCell id="zxf6L_KZFqAJSKNjvlDu-30" style="edgeStyle=orthogonalEdgeStyle;rounded=0;orthogonalLoop=1;jettySize=auto;html=1;entryX=1;entryY=0.5;entryDx=0;entryDy=0;" edge="1" parent="1" source="m22Obmv3goD1-djp9j3c-4" target="zxf6L_KZFqAJSKNjvlDu-29">
          <mxGeometry relative="1" as="geometry" />
        </mxCell>
        <mxCell id="zxf6L_KZFqAJSKNjvlDu-39" style="edgeStyle=orthogonalEdgeStyle;rounded=0;orthogonalLoop=1;jettySize=auto;html=1;entryX=0.441;entryY=0.005;entryDx=0;entryDy=0;entryPerimeter=0;" edge="1" parent="1" source="zxf6L_KZFqAJSKNjvlDu-31" target="zxf6L_KZFqAJSKNjvlDu-17">
          <mxGeometry relative="1" as="geometry">
            <mxPoint x="380" y="340" as="targetPoint" />
            <Array as="points">
              <mxPoint x="525" y="300" />
              <mxPoint x="383" y="300" />
            </Array>
          </mxGeometry>
        </mxCell>
        <mxCell id="zxf6L_KZFqAJSKNjvlDu-31" value="&lt;div style=&quot;line-height: 80%;&quot;&gt;&lt;span style=&quot;font-size: 8px;&quot;&gt;&lt;b&gt;txn&lt;/b&gt;&lt;/span&gt;&lt;/div&gt;&lt;div style=&quot;line-height: 80%;&quot;&gt;&lt;span style=&quot;font-size: 8px;&quot;&gt;&lt;b&gt;type?&lt;/b&gt;&lt;/span&gt;&lt;/div&gt;" style="rhombus;whiteSpace=wrap;html=1;fillColor=#fff2cc;strokeColor=#d6b656;" vertex="1" parent="1">
          <mxGeometry x="500" y="230" width="50" height="44" as="geometry" />
        </mxCell>
        <mxCell id="zxf6L_KZFqAJSKNjvlDu-32" style="edgeStyle=orthogonalEdgeStyle;rounded=0;orthogonalLoop=1;jettySize=auto;html=1;entryX=0.5;entryY=0;entryDx=0;entryDy=0;" edge="1" parent="1" source="zxf6L_KZFqAJSKNjvlDu-29" target="zxf6L_KZFqAJSKNjvlDu-31">
          <mxGeometry relative="1" as="geometry" />
        </mxCell>
        <mxCell id="zxf6L_KZFqAJSKNjvlDu-33" value="&lt;font style=&quot;font-size: 8px;&quot;&gt;&lt;b&gt;Yes&lt;/b&gt;&lt;/font&gt;" style="text;html=1;align=center;verticalAlign=middle;resizable=0;points=[];autosize=1;strokeColor=none;fillColor=none;" vertex="1" parent="1">
          <mxGeometry x="516" y="191" width="40" height="30" as="geometry" />
        </mxCell>
        <mxCell id="zxf6L_KZFqAJSKNjvlDu-35" value="&lt;b&gt;&lt;font style=&quot;font-size: 8px;&quot;&gt;Ignore&lt;/font&gt;&lt;/b&gt;" style="whiteSpace=wrap;html=1;fillColor=#f8cecc;strokeColor=#b85450;align=center;verticalAlign=middle;" vertex="1" parent="1">
          <mxGeometry x="500" y="89" width="50" height="22" as="geometry" />
        </mxCell>
        <mxCell id="zxf6L_KZFqAJSKNjvlDu-37" value="&lt;font style=&quot;font-size: 8px;&quot;&gt;&lt;b&gt;No&lt;/b&gt;&lt;/font&gt;" style="text;html=1;align=center;verticalAlign=middle;resizable=0;points=[];autosize=1;strokeColor=none;fillColor=none;" vertex="1" parent="1">
          <mxGeometry x="521" y="120" width="30" height="30" as="geometry" />
        </mxCell>
        <mxCell id="zxf6L_KZFqAJSKNjvlDu-38" style="edgeStyle=orthogonalEdgeStyle;rounded=0;orthogonalLoop=1;jettySize=auto;html=1;entryX=0.454;entryY=-0.023;entryDx=0;entryDy=0;entryPerimeter=0;" edge="1" parent="1" source="zxf6L_KZFqAJSKNjvlDu-31" target="zxf6L_KZFqAJSKNjvlDu-14">
          <mxGeometry relative="1" as="geometry" />
        </mxCell>
        <mxCell id="zxf6L_KZFqAJSKNjvlDu-40" value="&lt;div style=&quot;line-height: 80%;&quot;&gt;&lt;font style=&quot;font-size: 8px; line-height: 80%;&quot;&gt;&lt;b&gt;Card&amp;nbsp;&lt;/b&gt;&lt;/font&gt;&lt;b style=&quot;font-size: 8px; background-color: transparent; color: light-dark(rgb(0, 0, 0), rgb(255, 255, 255));&quot;&gt;Type&lt;/b&gt;&lt;/div&gt;" style="text;html=1;align=center;verticalAlign=middle;resizable=0;points=[];autosize=1;strokeColor=none;fillColor=none;" vertex="1" parent="1">
          <mxGeometry x="430" y="232" width="60" height="20" as="geometry" />
        </mxCell>
        <mxCell id="zxf6L_KZFqAJSKNjvlDu-41" value="&lt;div style=&quot;line-height: 80%;&quot;&gt;&lt;font style=&quot;font-size: 8px; line-height: 80%;&quot;&gt;&lt;b&gt;Cash&amp;nbsp;&lt;/b&gt;&lt;/font&gt;&lt;b style=&quot;font-size: 8px; background-color: transparent; color: light-dark(rgb(0, 0, 0), rgb(255, 255, 255));&quot;&gt;Type&lt;/b&gt;&lt;/div&gt;" style="text;html=1;align=center;verticalAlign=middle;resizable=0;points=[];autosize=1;strokeColor=none;fillColor=none;" vertex="1" parent="1">
          <mxGeometry x="521" y="280" width="60" height="20" as="geometry" />
        </mxCell>
        <mxCell id="zxf6L_KZFqAJSKNjvlDu-42" style="edgeStyle=orthogonalEdgeStyle;rounded=0;orthogonalLoop=1;jettySize=auto;html=1;entryX=0.006;entryY=0.586;entryDx=0;entryDy=0;entryPerimeter=0;startArrow=classic;startFill=1;" edge="1" parent="1" source="zxf6L_KZFqAJSKNjvlDu-15" target="m22Obmv3goD1-djp9j3c-1">
          <mxGeometry relative="1" as="geometry">
            <Array as="points">
              <mxPoint x="290" y="506" />
            </Array>
          </mxGeometry>
        </mxCell>
        <mxCell id="zxf6L_KZFqAJSKNjvlDu-45" style="edgeStyle=orthogonalEdgeStyle;rounded=0;orthogonalLoop=1;jettySize=auto;html=1;entryX=1.024;entryY=0.538;entryDx=0;entryDy=0;entryPerimeter=0;startArrow=classic;startFill=1;" edge="1" parent="1" source="zxf6L_KZFqAJSKNjvlDu-21" target="m22Obmv3goD1-djp9j3c-1">
          <mxGeometry relative="1" as="geometry">
            <Array as="points">
              <mxPoint x="485" y="505" />
              <mxPoint x="424" y="505" />
            </Array>
          </mxGeometry>
        </mxCell>
        <mxCell id="zxf6L_KZFqAJSKNjvlDu-48" style="edgeStyle=orthogonalEdgeStyle;rounded=0;orthogonalLoop=1;jettySize=auto;html=1;entryX=0.499;entryY=-0.057;entryDx=0;entryDy=0;entryPerimeter=0;startArrow=classic;startFill=1;" edge="1" parent="1" source="zxf6L_KZFqAJSKNjvlDu-18" target="m22Obmv3goD1-djp9j3c-1">
          <mxGeometry relative="1" as="geometry">
            <mxPoint x="385" y="480" as="targetPoint" />
          </mxGeometry>
        </mxCell>
        <mxCell id="zxf6L_KZFqAJSKNjvlDu-49" value="" style="endArrow=none;html=1;rounded=0;startArrow=classic;startFill=1;entryX=0.006;entryY=0.429;entryDx=0;entryDy=0;entryPerimeter=0;exitX=1.003;exitY=0.492;exitDx=0;exitDy=0;exitPerimeter=0;" edge="1" parent="1" source="m22Obmv3goD1-djp9j3c-4" target="m22Obmv3goD1-djp9j3c-7">
          <mxGeometry relative="1" as="geometry">
            <mxPoint x="690" y="170" as="sourcePoint" />
            <mxPoint x="785.5" y="169.76" as="targetPoint" />
          </mxGeometry>
        </mxCell>
        <mxCell id="zxf6L_KZFqAJSKNjvlDu-50" value="&lt;font&gt;&lt;b&gt;Event Listener&lt;/b&gt;&lt;/font&gt;" style="edgeLabel;resizable=0;html=1;;align=center;verticalAlign=middle;fontSize=8;" connectable="0" vertex="1" parent="zxf6L_KZFqAJSKNjvlDu-49">
          <mxGeometry relative="1" as="geometry" />
        </mxCell>
        <mxCell id="zxf6L_KZFqAJSKNjvlDu-56" value="" style="group" vertex="1" connectable="0" parent="1">
          <mxGeometry x="181" y="53" width="90" height="172" as="geometry" />
        </mxCell>
        <mxCell id="zxf6L_KZFqAJSKNjvlDu-3" value="" style="verticalLabelPosition=bottom;verticalAlign=top;html=1;shadow=0;dashed=0;strokeWidth=1;shape=mxgraph.android.phone2;strokeColor=#000000;" vertex="1" parent="zxf6L_KZFqAJSKNjvlDu-56">
          <mxGeometry x="0.8999999999999773" width="88.2" height="172" as="geometry" />
        </mxCell>
        <mxCell id="zxf6L_KZFqAJSKNjvlDu-4" value="" style="group" vertex="1" connectable="0" parent="zxf6L_KZFqAJSKNjvlDu-56">
          <mxGeometry y="46" width="90" height="80" as="geometry" />
        </mxCell>
        <mxCell id="zxf6L_KZFqAJSKNjvlDu-1" value="" style="dashed=0;outlineConnect=0;html=1;align=center;labelPosition=center;verticalLabelPosition=bottom;verticalAlign=top;shape=mxgraph.weblogos.android;fillColor=#A4CA39;strokeColor=none" vertex="1" parent="zxf6L_KZFqAJSKNjvlDu-4">
          <mxGeometry x="27.5" width="35" height="40" as="geometry" />
        </mxCell>
        <mxCell id="zxf6L_KZFqAJSKNjvlDu-2" value="&lt;b&gt;My Expense&lt;/b&gt;&lt;div&gt;&lt;b&gt;App UI&lt;/b&gt;&lt;/div&gt;" style="text;html=1;align=center;verticalAlign=middle;resizable=0;points=[];autosize=1;strokeColor=none;fillColor=none;" vertex="1" parent="zxf6L_KZFqAJSKNjvlDu-4">
          <mxGeometry y="40" width="90" height="40" as="geometry" />
        </mxCell>
        <mxCell id="zxf6L_KZFqAJSKNjvlDu-60" value="" style="endArrow=classic;dashed=1;html=1;rounded=0;exitX=0.357;exitY=-0.058;exitDx=0;exitDy=0;exitPerimeter=0;entryX=0.508;entryY=0.998;entryDx=0;entryDy=0;entryPerimeter=0;startArrow=classic;startFill=1;endFill=1;" edge="1" parent="1" source="zxf6L_KZFqAJSKNjvlDu-20" target="zxf6L_KZFqAJSKNjvlDu-3">
          <mxGeometry width="50" height="50" relative="1" as="geometry">
            <mxPoint x="360" y="330" as="sourcePoint" />
            <mxPoint x="230" y="230" as="targetPoint" />
          </mxGeometry>
        </mxCell>
        <mxCell id="zxf6L_KZFqAJSKNjvlDu-61" value="" style="endArrow=classic;dashed=1;html=1;rounded=0;exitX=0.452;exitY=-0.006;exitDx=0;exitDy=0;exitPerimeter=0;entryX=0.517;entryY=1.004;entryDx=0;entryDy=0;entryPerimeter=0;startArrow=classic;startFill=1;endFill=1;" edge="1" parent="1" source="zxf6L_KZFqAJSKNjvlDu-17" target="zxf6L_KZFqAJSKNjvlDu-3">
          <mxGeometry width="50" height="50" relative="1" as="geometry">
            <mxPoint x="473" y="373" as="sourcePoint" />
            <mxPoint x="220" y="260" as="targetPoint" />
          </mxGeometry>
        </mxCell>
        <mxCell id="zxf6L_KZFqAJSKNjvlDu-62" value="" style="endArrow=classic;dashed=1;html=1;rounded=0;exitX=0.466;exitY=-0.02;exitDx=0;exitDy=0;exitPerimeter=0;entryX=0.517;entryY=0.998;entryDx=0;entryDy=0;entryPerimeter=0;startArrow=classic;startFill=1;endFill=1;" edge="1" parent="1" source="zxf6L_KZFqAJSKNjvlDu-14" target="zxf6L_KZFqAJSKNjvlDu-3">
          <mxGeometry width="50" height="50" relative="1" as="geometry">
            <mxPoint x="436" y="394" as="sourcePoint" />
            <mxPoint x="280" y="280" as="targetPoint" />
          </mxGeometry>
        </mxCell>
        <mxCell id="zxf6L_KZFqAJSKNjvlDu-64" value="Message&lt;div&gt;Content&lt;/div&gt;" style="text;html=1;align=center;verticalAlign=middle;resizable=0;points=[];autosize=1;strokeColor=none;fillColor=none;fontStyle=1;fontSize=8;" vertex="1" parent="1">
          <mxGeometry x="671" y="248" width="60" height="30" as="geometry" />
        </mxCell>
        <mxCell id="zxf6L_KZFqAJSKNjvlDu-65" value="&lt;div&gt;Extracted&lt;/div&gt;Message&lt;div&gt;Details&lt;/div&gt;" style="text;html=1;align=center;verticalAlign=middle;resizable=0;points=[];autosize=1;strokeColor=none;fillColor=none;fontStyle=1;fontSize=8;" vertex="1" parent="1">
          <mxGeometry x="605" y="243" width="60" height="40" as="geometry" />
        </mxCell>
      </root>
    </mxGraphModel>
  </diagram>
</mxfile>
